<svg xmlns="http://www.w3.org/2000/svg" viewBox="0 0 512 512"><path fill="#47A248" d="M256 56C145.72 56 56 145.72 56 256s89.72 200 200 200 200-89.72 200-200S366.28 56 256 56zm0 330c-11.05 0-20-8.95-20-20s8.95-20 20-20 20 8.95 20 20-8.95 20-20 20zm29.82-50H226.18C214.4 336 205 326.6 205 314.82v-59.64C205 243.4 214.4 234 226.18 234h59.64C297.6 234 307 243.4 307 255.18v59.64C307 326.6 297.6 336 285.82 336zM375.82 176H136.18C124.4 176 115 166.6 115 154.82v-59.64C115 83.4 124.4 74 136.18 74h239.64C387.6 74 397 83.4 397 95.18v59.64c0 11.78-9.4 21.18-21.18 21.18z"/></svg>
