<svg xmlns="http://www.w3.org/2000/svg" viewBox="0 0 432.1 445.4"><path fill="#4169E1" d="M214.4 344.6c-4 0-7.3.3-9.9.9-9.7-16.3-10.3-44.2-10.3-63.8 0-28.9 9.3-45.7 18.5-57.9 7.9-10.4 32.9-33.4 32.9-33.4s6.6 22.4 7.4 45.8c.5 14.6-2.3 29.5-8.4 42.4-7.1 15-19.8 29.5-30.2 66zm215.8-196.2c-8.2-58.2-56.7-95.9-64.8-108.9-22.5-36.3-34.9-34.8-44.8-34.5-43.7 1.5-73.3 27.4-73.3 27.4s-38.3-15.8-81.8-15.8c-34.7 0-56.8 9.6-73.4 25.8-9.7 9.4-20.2 15.2-30.7 15.2-18.7 0-35.7-14.8-46.1-35.2-10.5-20.5-42.3-73.9-7.7-195.7 0 0 30.9 22.5 52.5 43.9 21.6 21.3 56 22 56 22s1.2-13.5-.2-22.3c-1.8-11.7-6.5-24.1-10.3-31.9-4-8.3-13.6-22.8-13.6-22.8s41.2 4.7 77.3 37.5c36.1 32.8 53.2 82.6 53.2 82.6s46.8-24.2 112.5-32.2c65.7-8 120.4 12.5 120.4 12.5s-12.7 27.9-37.7 47.8c-25 19.8-79.2 33.7-147.9 4.5 0 0-15.6 20.4-51.1 32-35.6 11.6-79.4 5.8-119.9-14.2 0 0 12.9 87.7 131.3 105.5 118.4 17.8 203.2-47 238.6-108.1 35.5-61.1 19.2-123.5 11.1-181.6zM180.3 208.2c14.2 0 25.8 11.5 25.8 25.8 0 14.2-11.5 25.8-25.8 25.8-14.2 0-25.8-11.5-25.8-25.8 0-14.2 11.6-25.8 25.8-25.8z"/></svg>
