<svg xmlns="http://www.w3.org/2000/svg" viewBox="0 0 512 512"><path fill="#3178C6" d="M233.5 27.6c32.2-2.9 63.3 3.5 91.6 17.3 28.3 13.8 52.1 36.2 68.5 62.5 16.3 26.3 25.3 57.3 25.3 88.5 0 31.2-9 62.2-25.3 88.5-16.4 26.3-40.2 48.7-68.5 62.5-28.3 13.8-59.4 20.2-91.6 17.3-32.2-2.9-62.4-15.9-87.3-36.9-24.9-21-43.7-49.3-53.7-81.1-10-31.8-10-65.6 0-97.4 10-31.8 28.8-60.1 53.7-81.1 24.9-21 55.1-34 87.3-36.9zm-3.2 45.8c-22.9 2.1-44.5 11.2-62.3 26.3-17.8 15-31.1 35.8-38.4 58.9-7.3 23.1-7.3 47.7 0 70.8 7.3 23.1 20.6 43.9 38.4 58.9 17.8 15.1 39.4 24.2 62.3 26.3 22.9 2.1 45.5-3.1 65.2-14.6 19.7-11.5 35.9-28.8 46.6-49.5 10.7-20.7 15.2-44.1 13.1-67.3-2.1-23.2-10.9-45.3-25.2-63.4-14.3-18.1-33.7-31.3-55.6-37.9-21.9-6.6-45.2-7.6-67.7-2.8l-2.5.5.1-.2z"/><path fill="#3178C6" d="M310.2 242.4v37.8h-37.8v-37.8h37.8zm-75.7 0v37.8h-37.8v-37.8h37.8z"/><path fill="#3178C6" d="M384.8 169.4v173.2H127.2V169.4h257.6zm-128.8 37.8h-91.3v97.6h91.3v-37.8h-53.5v-22.1h53.5v-37.7zm37.8 0v37.8h37.8v59.8h-75.7v-97.6h37.9z"/></svg>
